<svg width="393" height="305" viewBox="0 0 393 305" fill="none" xmlns="http://www.w3.org/2000/svg">
<g clip-path="url(#clip0_49_1182)">
<path d="M-74.5621 186.134C-79.2076 162.662 -63.7992 139.912 -40.2789 135.517L-24.3909 132.548C-1.79296 128.325 20.1294 142.624 25.3739 165.006L26.5912 170.202C34.2342 202.821 74.5927 214.556 98.5351 191.122L203.906 87.9869C217.582 74.6012 240.458 79.2978 247.753 96.9893L267.672 145.292C279.432 173.811 316.509 181.034 338.115 159.017L365.333 131.281C396.058 99.9717 448.439 129.368 437.721 171.905L396.5 335.5H-45L-74.5621 186.134Z" fill="#92BCEA" style="fill:#92BCEA;fill:color(display-p3 0.5725 0.7373 0.9176);fill-opacity:1;"/>
<path d="M-34.0621 169.634C-38.7076 146.162 -23.2992 123.412 0.221051 119.017L16.1091 116.048C38.707 111.825 60.6294 126.124 65.8739 148.506L67.0912 153.702C74.7342 186.321 115.093 198.056 139.035 174.622L244.406 71.4869C258.082 58.1012 280.958 62.7978 288.253 80.4893L308.172 128.792C319.932 157.311 357.009 164.534 378.615 142.517L405.833 114.781C436.558 83.4717 488.939 112.868 478.221 155.405L437 319H-4.5L-34.0621 169.634Z" fill="#3454D1" style="fill:#3454D1;fill:color(display-p3 0.2039 0.3294 0.8196);fill-opacity:1;"/>
</g>
<defs>
<clipPath id="clip0_49_1182">
<rect width="393" height="305" fill="white" style="fill:white;fill-opacity:1;"/>
</clipPath>
</defs>
</svg>
