<svg width="1280" height="282" viewBox="0 0 1280 282" fill="none" xmlns="http://www.w3.org/2000/svg">
<g clip-path="url(#clip0_49_1183)">
<path d="M-19.4197 233.048C-53.5133 169.102 -10.3916 91.2559 61.9016 86.241L147.171 80.3261C181.97 77.9121 215.285 94.8031 233.904 124.302V124.302C262.918 170.268 324.56 182.478 368.905 151.043L500.448 57.7963C534.955 33.3357 581.119 33.2304 615.737 57.5333L838.314 213.79C862.519 230.782 893.004 236.189 921.577 228.558L1294.52 128.946C1322.7 121.419 1352.76 129.52 1373.34 150.189L1430.77 207.862C1484.23 261.554 1422.24 349.021 1353.87 316.368V316.368C1344.79 312.031 1334.85 309.78 1324.79 309.78H81.4997C44.5637 309.78 10.6354 289.42 -6.74189 256.827L-19.4197 233.048Z" fill="#92BCEA" style="fill:#92BCEA;fill:color(display-p3 0.5725 0.7373 0.9176);fill-opacity:1;"/>
<path d="M-63.4197 218.269C-97.5133 154.323 -54.3916 76.476 17.9016 71.4612L103.171 65.5462C137.97 63.1322 171.285 80.0233 189.904 109.522V109.522C218.918 155.488 280.56 167.698 324.905 136.263L456.448 43.0164C490.955 18.5559 537.119 18.4505 571.737 42.7534L794.314 199.01C818.519 216.002 849.004 221.409 877.577 213.778L1250.52 114.166C1278.7 106.639 1308.76 114.74 1329.34 135.409L1386.77 193.083C1440.23 246.774 1378.24 334.241 1309.87 301.588V301.588C1300.79 297.251 1290.85 295 1280.79 295H37.4997C0.563693 295 -33.3646 274.64 -50.7419 242.047L-63.4197 218.269Z" fill="#3454D1" style="fill:#3454D1;fill:color(display-p3 0.2039 0.3294 0.8196);fill-opacity:1;"/>
</g>
<defs>
<clipPath id="clip0_49_1183">
<rect width="1280" height="282" fill="white" style="fill:white;fill-opacity:1;"/>
</clipPath>
</defs>
</svg>
